<svg version="1.1" id="Layer_1" xmlns="http://www.w3.org/2000/svg" xmlns:xlink="http://www.w3.org/1999/xlink" x="0px" y="0px"
	 width="100%" viewBox="0 0 1024 384" enable-background="new 0 0 1024 384" xml:space="preserve">
<path fill="#000000" opacity="1.000000" stroke="none" 
	d="
M272.034210,92.689896 
	C297.081970,101.310196 312.752808,117.861244 316.252045,144.085083 
	C319.579254,169.019333 306.920471,189.458130 283.388916,199.251251 
	C274.536957,202.935150 265.305695,205.123093 255.728165,205.209412 
	C251.409012,205.248352 249.790314,207.167648 249.288574,211.038773 
	C247.665573,223.560654 254.915009,232.143509 268.078644,232.916656 
	C269.326630,230.466324 268.629578,227.768387 268.657166,225.196640 
	C268.725311,218.851318 271.029541,214.228363 277.555054,212.411667 
	C279.149628,211.967743 280.507141,211.236450 281.504852,209.638397 
	C285.341827,203.492584 289.737915,201.709869 295.611755,203.629730 
	C301.280579,205.482559 305.070190,211.412918 304.582916,217.720047 
	C304.244324,222.102966 302.289093,225.726044 299.003265,228.541901 
	C295.145935,231.847565 294.443359,235.708771 296.520569,240.186264 
	C297.726166,242.784973 298.509186,245.496841 298.807709,248.325882 
	C299.338409,253.355942 296.678680,258.303650 292.441559,260.379730 
	C287.979553,262.566010 282.463684,261.437042 278.630280,257.786133 
	C275.876007,255.162979 274.664093,251.647232 272.893250,248.472702 
	C270.476135,244.139709 267.177155,241.087372 262.245117,240.169388 
	C247.272675,237.382553 238.720291,229.334518 237.716324,209.810730 
	C237.501907,205.641449 235.455948,204.725433 229.676437,205.345795 
	C225.316528,205.813782 226.864258,208.590942 227.271973,210.862946 
	C229.490005,223.222702 234.959244,234.186386 241.820114,244.556000 
	C243.502365,247.098618 245.477249,249.534210 246.368210,252.751328 
	C243.634933,253.134094 242.697495,251.261475 241.445847,250.121140 
	C229.876282,239.580460 222.753525,226.443680 218.919922,211.379120 
	C217.473618,205.695694 213.752777,203.665985 208.292297,205.497513 
	C204.729462,206.692596 206.191269,209.752686 206.511276,211.893082 
	C208.016449,221.961105 210.599960,231.794098 214.428986,241.232056 
	C221.728394,259.223877 231.063934,275.826508 247.683044,287.041504 
	C255.095001,292.043274 263.117828,295.598206 272.290161,295.729645 
	C287.312592,295.944977 297.465027,289.148315 303.250336,275.100708 
	C303.974518,273.342285 304.070831,271.090759 306.626068,270.268005 
	C309.011047,271.919434 308.211212,274.332825 307.872192,276.484741 
	C305.223999,293.295441 292.736572,305.932648 275.249786,309.264191 
	C256.689850,312.800140 240.207489,307.152496 225.343384,296.589203 
	C199.517914,278.236145 184.519974,252.655624 177.955383,222.047043 
	C172.146362,194.961502 172.830856,168.002213 182.823212,141.910385 
	C191.656128,118.846130 206.073578,100.741043 230.791718,93.144157 
	C244.303909,88.991302 257.967834,88.606659 272.034210,92.689896 
M229.644363,118.128548 
	C224.696991,122.227249 220.931946,127.272079 217.897308,132.888138 
	C209.824600,147.827911 206.625153,164.051132 205.334915,180.772247 
	C205.072662,184.171066 205.046112,186.924149 209.987457,186.921982 
	C214.604309,186.919937 216.781433,185.596558 216.742996,180.768143 
	C216.718094,177.637589 217.171875,174.460037 217.776505,171.375153 
	C220.464584,157.659851 224.534882,144.501190 234.799850,134.299423 
	C247.694443,121.484222 266.384918,122.811127 277.511627,137.145309 
	C281.062836,141.720215 282.893890,147.012115 284.404968,152.510849 
	C285.826569,157.683868 285.920837,163.044250 286.423431,169.130096 
	C295.814697,154.622681 292.489349,129.650543 280.343231,118.354904 
	C267.370148,106.290199 245.425552,105.983612 229.644363,118.128548 
M248.874313,136.239761 
	C245.238419,137.889465 242.781464,140.834610 240.549011,143.971939 
	C233.758194,153.515213 229.943069,164.355072 227.564331,175.655121 
	C224.796783,188.802246 225.713852,186.684509 236.730240,186.749008 
	C240.437790,186.770721 244.359253,187.711594 247.451477,184.228180 
	C251.703415,179.438278 257.153015,176.153946 262.680786,173.017258 
	C275.049957,165.998489 277.732544,153.268448 269.293060,141.837067 
	C264.250092,135.006317 257.615570,133.020660 248.874313,136.239761 
z"/>
<path fill="#000000" opacity="1.000000" stroke="none" 
	d="
M339.029938,276.334106 
	C335.073120,276.334076 331.609619,276.334076 328.347076,276.334076 
	C330.394104,214.459885 330.491272,153.154190 328.269470,91.310211 
	C330.504700,90.100800 333.714813,90.936852 336.789490,90.868416 
	C342.619598,90.738655 348.458374,90.955437 354.286224,90.782188 
	C357.906494,90.674561 359.424530,92.010391 359.307343,95.721802 
	C359.123352,101.548965 359.218414,107.387032 359.298248,113.219070 
	C359.319977,114.804062 358.755981,116.554291 360.089722,118.006371 
	C362.385284,117.999886 362.971344,115.991089 364.040588,114.646362 
	C378.587982,96.351059 397.968048,89.635872 420.646881,91.464508 
	C432.572754,92.426117 444.413116,94.424950 456.334656,95.469856 
	C465.952209,96.312828 475.633667,96.427986 484.210999,91.088089 
	C485.776031,93.436714 485.363922,95.253929 484.885254,97.008118 
	C483.352081,102.626877 481.891144,108.271866 480.130768,113.820587 
	C477.438354,122.306961 473.326935,125.312325 464.215729,125.188553 
	C451.868561,125.020828 439.740234,122.859360 427.588928,120.841797 
	C414.969391,118.746498 402.549713,115.277023 389.646301,115.052032 
	C371.275757,114.731697 361.988556,123.341766 360.115753,141.577835 
	C359.476410,147.803452 359.349335,153.877670 360.750305,159.904022 
	C364.361450,175.437805 377.991516,183.218445 395.545563,180.315735 
	C407.193390,178.389679 417.727081,173.302994 428.679901,169.385895 
	C431.339844,168.434601 433.995483,167.352859 436.747314,166.798904 
	C445.264893,165.084229 450.296204,167.480072 454.611816,175.066055 
	C456.587341,178.538513 458.476196,182.060715 460.374329,185.576599 
	C461.496185,187.654602 461.008636,189.327377 458.601562,189.644867 
	C443.991821,191.571793 431.639496,200.001404 417.581696,203.648438 
	C392.416534,210.177063 376.572784,204.658173 361.951416,183.346390 
	C361.685425,182.958694 361.254761,182.683945 360.701508,182.171936 
	C358.836731,183.474487 359.293060,185.422104 359.291046,187.093719 
	C359.264404,209.426041 359.167725,231.759583 359.381836,254.089996 
	C359.437378,259.884796 360.404144,265.682709 361.144958,271.454468 
	C361.572174,274.782715 360.763611,276.486023 357.021027,276.371338 
	C351.193542,276.192749 345.356354,276.330444 339.029938,276.334106 
z"/>
<path fill="#000000" opacity="1.000000" stroke="none" 
	d="
M822.846436,262.755981 
	C817.544006,276.323364 817.544006,276.323334 803.537354,276.332001 
	C790.130188,276.340302 790.158264,276.330231 785.610107,263.664764 
	C784.153931,259.609650 782.505737,255.623459 780.382996,250.157776 
	C777.702942,256.575439 775.537476,261.790802 773.348450,266.996216 
	C768.679321,278.099091 771.562500,276.105469 759.597778,276.319611 
	C755.933533,276.385193 752.242859,276.063049 748.608093,276.396271 
	C744.259460,276.794861 742.130920,275.125000 740.544800,271.001495 
	C729.487061,242.254257 718.240662,213.578674 706.882690,184.948395 
	C703.645264,176.787796 699.838623,168.852982 696.365295,160.978485 
	C697.761230,158.707092 699.747009,159.155945 701.490906,159.139023 
	C707.818298,159.077621 714.148987,159.218231 720.473694,159.074448 
	C723.824829,158.998260 725.492065,160.421204 726.690430,163.536087 
	C738.826355,195.078598 751.093262,226.570724 763.348389,258.067291 
	C764.240723,260.360748 765.327698,262.578522 767.561157,264.998413 
	C770.531189,256.986572 773.623169,249.015778 776.345825,240.920746 
	C776.777039,239.638596 775.676270,237.742157 775.058777,236.221069 
	C765.170532,211.861115 757.109802,186.746124 744.973083,163.313614 
	C744.518494,162.435989 744.094482,161.501968 744.588196,160.354965 
	C746.351318,158.885315 748.587524,159.176773 750.707703,159.150681 
	C756.202332,159.083054 761.706848,159.303650 767.190613,159.048676 
	C771.097046,158.867065 773.156311,160.246704 774.595825,164.018356 
	C785.399780,192.325439 796.404419,220.556015 807.379944,248.797455 
	C809.468384,254.171326 811.705994,259.487213 813.870728,264.820007 
	C815.698792,264.121368 816.054749,262.893097 816.421631,261.869781 
	C824.283630,239.940979 833.890747,218.642929 840.217590,196.160095 
	C841.486328,191.651413 842.339417,187.055740 841.940430,182.359451 
	C841.514709,177.348328 838.256958,175.265320 833.574646,177.193298 
	C827.442322,179.718292 823.075439,184.731567 818.132080,188.897797 
	C815.829773,190.838104 813.619385,192.900040 810.870544,194.138931 
	C806.302246,196.197830 801.702698,196.241562 797.727051,192.893478 
	C794.361328,190.059021 790.775146,187.325485 787.952515,182.489761 
	C801.138184,180.783798 807.899719,170.459518 817.030579,163.553238 
	C823.743103,158.476044 831.267029,157.085251 839.253784,159.110550 
	C850.162720,161.876938 854.948975,172.273254 851.767456,185.772095 
	C848.428711,199.938248 842.116211,213.054626 837.075439,226.615662 
	C832.609924,238.629120 827.708801,250.480698 822.846436,262.755981 
z"/>
<path fill="#000000" opacity="1.000000" stroke="none" 
	d="
M573.840515,259.157898 
	C557.425415,241.868393 553.530945,221.924088 559.863770,199.731659 
	C566.051086,178.049164 589.496460,160.307709 612.075806,159.605087 
	C638.171936,158.793030 657.737061,169.521088 669.114685,193.035706 
	C680.920105,217.434326 673.806213,246.916046 653.351440,262.991241 
	C630.785278,280.725708 601.094666,280.985352 579.033203,263.620880 
	C577.334045,262.283508 575.735474,260.818329 573.840515,259.157898 
M582.659485,227.838333 
	C585.799927,233.550980 589.400391,238.944290 593.782959,243.789200 
	C603.100220,254.089386 613.426575,262.733063 627.695862,265.310059 
	C639.513611,267.444275 649.238831,262.641998 653.803528,251.939346 
	C656.262085,246.174896 657.181885,240.105072 656.495300,233.852020 
	C655.085571,221.013367 650.789673,209.223007 643.182190,198.763901 
	C633.884583,185.981216 622.779297,175.453537 607.056335,170.980072 
	C592.702576,166.896149 579.920044,174.063705 576.419189,188.490829 
	C573.111816,202.120453 576.589783,214.852264 582.659485,227.838333 
z"/>
<path fill="#000000" opacity="1.000000" stroke="none" 
	d="
M533.262207,185.000031 
	C533.896606,215.419449 531.453125,245.410431 535.633850,274.764343 
	C534.746399,276.288483 533.700256,276.289459 532.718201,276.293030 
	C525.057373,276.320709 517.395630,276.260437 509.735687,276.352753 
	C506.720123,276.389099 505.558533,275.175751 505.799866,272.147797 
	C510.080109,218.449142 506.691620,164.660141 507.581299,110.919701 
	C507.665863,105.811264 506.653900,100.666588 505.933136,95.569550 
	C505.487885,92.420959 506.310242,90.812767 509.748871,90.854042 
	C517.075745,90.942017 524.405090,90.945999 531.731873,90.858208 
	C534.924194,90.819962 535.767212,92.318871 535.370300,95.229355 
	C531.323547,124.905357 534.046082,154.744400 533.262207,185.000031 
z"/>
</svg>